<svg xmlns="http://www.w3.org/2000/svg" viewBox="0 0 24 30" fill="none" x="0px" y="0px"><path d="M11 16.5C11 16.7761 11.2239 17 11.5 17H12.5C12.7761 17 13 16.7761 13 16.5V13H16.5C16.7761 13 17 12.7761 17 12.5V11.5C17 11.2239 16.7761 11 16.5 11H13V7.5C13 7.22386 12.7761 7 12.5 7H11.5C11.2239 7 11 7.22386 11 7.5V11H7.5C7.22386 11 7 11.2239 7 11.5V12.5C7 12.7761 7.22386 13 7.5 13H11V16.5Z" fill="black"/><path fill-rule="evenodd" clip-rule="evenodd" d="M20 4H4V20H20V4ZM2.5 2C2.22386 2 2 2.22386 2 2.5V21.5C2 21.7761 2.22386 22 2.5 22H21.5C21.7761 22 22 21.7761 22 21.5V2.5C22 2.22386 21.7761 2 21.5 2H2.5Z" fill="black"/></svg>