<svg xmlns="http://www.w3.org/2000/svg"  xmlns:xlink="http://www.w3.org/1999/xlink" fill="white" version="1.1" x="0px" y="0px" viewBox="0 0 30 37.5" xml:space="preserve"><g transform="translate(-90 -440)"><g xmlns="http://www.w3.org/2000/svg" xmlns:xlink="http://www.w3.org/1999/xlink"><g><path d="M93.929,443.93c-3.905,3.904-3.905,10.236,0,14.141c3.544,3.545,9.08,3.861,12.993,0.973l8.928,8.928     c0.586,0.586,1.535,0.586,2.121,0s0.586-1.535,0-2.121l-8.928-8.928c2.889-3.912,2.572-9.449-0.973-12.992     C104.166,440.023,97.834,440.023,93.929,443.93z M105.949,455.949c-2.729,2.73-7.17,2.73-9.898,0c-2.73-2.728-2.73-7.17,0-9.898     c2.729-2.73,7.17-2.73,9.898,0C108.68,448.779,108.68,453.221,105.949,455.949z"/></g><polygon points="102,447 100,447 100,450 97,450 97,452 100,452 100,455 102,455 102,452 105,452 105,450 102,450   "/></g></g></svg>